<svg width="69" height="92" viewBox="0 0 69 92" fill="none" xmlns="http://www.w3.org/2000/svg">
<path d="M13.0101 15.7756L13.0102 15.7756L13.0068 15.7695L12.9974 15.7525C11.4962 13.0548 10.0023 10.37 8.02427 8.36938C6.14005 6.46364 3.8118 5.1717 0.630068 5.02137L1.25517 2.40585H37.1405L36.5169 5.00503C34.6625 5.10853 32.8693 5.84164 31.7493 7.07095C31.1446 7.73468 30.7342 8.54719 30.6337 9.47581C30.5333 10.4037 30.7466 11.4092 31.3248 12.4537C31.3253 12.4546 31.3258 12.4555 31.3263 12.4564L54.5407 55.5879L46.6112 71.482L46.6111 71.4822C44.4374 75.844 41.9595 80.6378 38.6979 84.3543C35.4462 88.0595 31.4537 90.6512 26.2441 90.692C23.3191 90.7118 20.7595 89.2123 18.7704 87.0188C16.8354 84.885 15.4782 82.1325 14.8933 79.6235L16.487 77.406C19.6036 78.863 23.0441 79.7005 26.5477 79.5191L26.548 79.5191C29.0284 79.3891 32.3427 78.6943 35.066 77.1533C37.798 75.6073 39.9992 73.165 40.048 69.5515L40.048 69.5497C40.0754 66.8217 38.8767 63.9606 37.7121 61.665L37.7123 61.6649L37.7065 61.6542L13.0101 15.7756Z" fill="white" stroke="white"/>
<path d="M50.6177 9C50.6177 5.22876 50.6177 3.34315 51.7142 2.17157C52.8109 1 54.5758 1 58.1059 1H59.5301C63.0601 1 64.825 1 65.9217 2.17157C67.0183 3.34315 67.0183 5.22876 67.0183 9V13.5154C67.0183 16.0867 67.0183 17.3724 66.6555 18.3977C66.0857 20.0084 64.8955 21.2799 63.3879 21.8887C62.4282 22.2762 61.2248 22.2762 58.818 22.2762C56.4112 22.2762 55.2078 22.2762 54.248 21.8887C52.7404 21.2799 51.5503 20.0084 50.9804 18.3977C50.6177 17.3724 50.6177 16.0867 50.6177 13.5154V9Z" stroke="white" stroke-width="2" stroke-linejoin="round"/>
<path d="M58.9695 2V7.9844V2Z" fill="white"/>
<path d="M58.9695 2V7.9844" stroke="white" stroke-width="2" stroke-linecap="round" stroke-linejoin="round"/>
</svg>
